<?xml version="1.0" encoding="UTF-8"?> <svg xmlns="http://www.w3.org/2000/svg" width="15" height="18" viewBox="0 0 15 18" fill="none"><path d="M10.685 1.70605H3.79126V3.06446H10.685V1.70605Z" fill="#00404C"></path><path d="M0 6.54751V16.8886C0 17.1628 0.108946 17.4259 0.302869 17.6198C0.496792 17.8137 0.759807 17.9226 1.03406 17.9226H13.4427C13.717 17.9226 13.98 17.8137 14.1739 17.6198C14.3679 17.4259 14.4768 17.1628 14.4768 16.8886V2.41128C14.4768 2.13703 14.3679 1.87401 14.1739 1.68009C13.98 1.48616 13.717 1.37722 13.4427 1.37722H8.27246V1.03406C8.27246 0.898263 8.24571 0.763798 8.19375 0.638341C8.14178 0.512883 8.06561 0.398889 7.96959 0.302868C7.87357 0.206847 7.75958 0.130679 7.63412 0.0787124C7.50866 0.0267461 7.3742 0 7.2384 0C7.10261 0 6.96814 0.0267461 6.84269 0.0787124C6.71723 0.130679 6.60323 0.206847 6.50721 0.302868C6.41119 0.398889 6.33502 0.512883 6.28306 0.638341C6.23109 0.763798 6.20434 0.898263 6.20434 1.03406V1.37874H1.03406C0.759807 1.37874 0.496792 1.48769 0.302869 1.68161C0.108946 1.87553 0 2.13855 0 2.4128V6.54903V6.54751ZM6.89372 1.03406C6.89372 0.988793 6.90263 0.943971 6.91995 0.902152C6.93728 0.860333 6.96267 0.822334 6.99467 0.790327C7.02668 0.75832 7.06468 0.732931 7.1065 0.715609C7.14832 0.698287 7.19314 0.689372 7.2384 0.689372C7.28367 0.689372 7.32849 0.698287 7.37031 0.715609C7.41213 0.732931 7.45013 0.75832 7.48213 0.790327C7.51414 0.822334 7.53953 0.860333 7.55685 0.902152C7.57417 0.943971 7.58309 0.988793 7.58309 1.03406V1.37874H6.89372V1.03406ZM10.6878 2.06659V2.75596H3.79154V2.06659H10.6878ZM3.79409 3.44533H10.6878V4.13521H3.79154L3.79409 3.44533ZM9.99843 4.82408C10.7599 4.82408 11.3772 4.20679 11.3772 3.44533H12.4112V9.64993V15.8545H2.06811V3.44533H3.10217C3.10217 4.20679 3.71945 4.82408 4.48091 4.82408H9.99843ZM0.689372 2.41128C0.689372 2.31986 0.725685 2.23219 0.790326 2.16755C0.854967 2.10291 0.942639 2.06659 1.03406 2.06659H3.10217L0.302869 1.68161V17.2333H6.91995H13.7874V9.64993V2.06659H11.3746H13.4427C13.5342 2.06659 13.6218 2.10291 13.6865 2.16755C13.7511 2.23219 13.7874 2.31986 13.7874 2.41128V16.8886C13.7874 16.98 13.7511 17.0677 13.6865 17.1323C13.6218 17.197 13.5342 17.2333 13.4427 17.2333H1.03406C0.942639 17.2333 0.854967 17.197 0.790326 17.1323C0.725685 17.0677 0.689372 16.98 0.689372 16.8886V2.41128Z" fill="#00404C"></path><path d="M5.24851 9.43786C5.14336 9.34205 5.0185 9.26605 4.88104 9.21419C4.74359 9.16234 4.59625 9.13564 4.44745 9.13564C4.29866 9.13564 4.15131 9.16234 4.01386 9.21419C3.87641 9.26605 3.75154 9.34205 3.6464 9.43786L3.49643 9.57598C3.39114 9.67165 3.30762 9.78527 3.25063 9.91035C3.19364 10.0354 3.16431 10.1695 3.16431 10.3049C3.16431 10.4403 3.19364 10.5743 3.25063 10.6994C3.30762 10.8245 3.39114 10.9381 3.49643 11.0338L5.24851 12.6297C5.35381 12.7256 5.47884 12.8016 5.61644 12.8535C5.75404 12.9054 5.90153 12.9321 6.05048 12.9321C6.19942 12.9321 6.34691 12.9054 6.48451 12.8535C6.62212 12.8016 6.74715 12.7256 6.85245 12.6297L11.0863 8.77719C11.1917 8.68137 11.2752 8.56761 11.3322 8.4424C11.3893 8.31719 11.4186 8.18299 11.4186 8.04746C11.4186 7.91192 11.3893 7.77772 11.3322 7.65251C11.2752 7.5273 11.1917 7.41354 11.0863 7.31772L10.9363 7.18126C10.831 7.0854 10.706 7.00937 10.5684 6.95749C10.4308 6.90561 10.2833 6.87891 10.1344 6.87891C9.98544 6.87891 9.83794 6.90561 9.70034 6.95749C9.56274 7.00937 9.43772 7.0854 9.33242 7.18126L6.85245 9.43786C6.74727 9.53391 6.62228 9.61013 6.48466 9.66213C6.34704 9.71413 6.19949 9.7409 6.05048 9.7409C5.90146 9.7409 5.7539 9.71413 5.61628 9.66213C5.47866 9.61013 5.35368 9.53391 5.24851 9.43786Z" fill="#00404C"></path><path d="M10.685 3.44531H3.79126V4.13469H10.685V3.44531Z" fill="#00404C"></path></svg> 