<?xml version="1.0" encoding="UTF-8"?> <svg xmlns="http://www.w3.org/2000/svg" width="28" height="28" viewBox="0 0 28 28" fill="none"><path d="M3.27145 11.1502C3.04663 12.6294 3.24842 14.0674 3.89098 15.4686C4.53355 16.8698 5.50055 18.0486 6.81078 19.0047C8.11162 19.961 9.61706 20.5704 11.3177 20.8332C13.1078 21.1083 14.8329 20.9338 16.488 20.3051C17.6358 21.363 18.8974 21.996 20.273 22.204C20.4237 22.2293 20.5397 22.1566 20.6258 21.9905C20.7118 21.8244 20.704 21.6696 20.607 21.5118C20.51 21.354 20.3727 21.0561 20.1995 20.6039C19.852 19.8826 19.6081 19.1782 19.4725 18.4857C20.8247 17.2523 21.6315 15.7524 21.9027 14.0046C22.1276 12.5255 21.9258 11.0875 21.2832 9.68627C20.6406 8.28506 19.6736 7.10622 18.3634 6.15012C17.0626 5.19383 15.5571 4.58439 13.8565 4.32162C12.1558 4.05885 10.538 4.18899 9.01231 4.71186C7.48187 5.23013 6.19718 6.0677 5.17205 7.21019C4.12833 8.36244 3.49626 9.67106 3.27145 11.1502Z" fill="#00404C"></path></svg> 