<svg width="59" height="59" viewBox="0 0 59 59" fill="none" xmlns="http://www.w3.org/2000/svg">
<path d="M26.4056 32.2212C22.8186 31.1542 19.1313 30.459 15.4021 30.1466C9.42492 29.6644 3.19722 30.2975 0.999211 30.5669C1.43671 33.4888 2.23285 36.3456 3.36961 39.0725L7.38314 38.3101C9.44426 38.0216 11.5197 37.8471 13.6001 37.7874C15.1153 37.7216 16.6333 37.7549 18.1442 37.8871L17.3954 35.0663C29.3821 35.0824 39.1142 39.5359 45.6786 43.7901L50.9851 47.6644L51.0013 47.6778C51.9566 46.4175 52.8415 45.1052 53.6518 43.747C41.5843 33.0348 25.6379 28.1206 25.6379 28.1206L26.4056 32.2212ZM19.1974 14.8355L19.1813 18.505C13.9479 16.5347 8.52175 15.1205 2.99251 14.2859C2.70159 14.2535 2.42684 14.2266 2.16825 14.2023C2.09552 14.5041 2.02549 14.8112 1.96353 15.1238C1.40414 17.1737 1.01316 19.266 0.794495 21.3797C1.37632 21.4013 1.94648 21.4273 2.50496 21.4578L7.92725 21.8997C10.3919 22.1691 12.5765 22.5409 14.4297 22.9262C18.9577 23.8476 21.3012 24.8121 21.3012 24.8121L21.1773 21.8162C31.3404 24.8418 39.6503 30.1305 45.9588 35.3842L51.2383 40.1772C52.2538 41.1821 53.1858 42.1574 54.037 43.0842C54.8307 41.7128 55.5317 40.2898 56.1353 38.8247C41.8213 22.5382 19.1974 14.8355 19.1974 14.8355ZM22.1604 40.4304L22.9335 43.4264C18.207 43.4462 13.5121 44.1978 9.01548 45.6545C8.49022 45.8296 7.93803 46.0236 7.38314 46.2284C17.6459 60.381 37.3337 65.1686 50.6996 48.0793C49.8187 47.5135 48.7979 46.9073 47.5803 46.2472C35.5209 39.8862 22.1739 40.4277 22.1739 40.4277L22.1604 40.4304ZM5.84776 6.78518C7.44509 7.22434 8.4148 7.50454 8.4148 7.50454C9.11246 7.7551 9.76162 8.00027 10.3731 8.23467C13.1206 9.26116 14.6317 9.99398 14.6317 9.99398V6.53193C28.4232 11.7452 38.8745 19.615 46.2604 26.7708L51.5157 32.2858C53.4821 34.522 55.0956 36.5696 56.3643 38.2912C68.0709 8.01374 20.7032 -10.8215 5.84776 6.78518Z" fill="#F9C515"/>
</svg>
