<svg width="266" height="59" viewBox="0 0 266 59" fill="none" xmlns="http://www.w3.org/2000/svg">
<g clip-path="url(#clip0_1_3581)">
<path d="M25.6111 32.2212C22.0241 31.1542 18.3369 30.459 14.6076 30.1466C8.63042 29.6644 2.40273 30.2975 0.204717 30.5669C0.642215 33.4888 1.43836 36.3456 2.57512 39.0725L6.58864 38.3101C8.64976 38.0216 10.7252 37.8471 12.8056 37.7874C14.3208 37.7216 15.8388 37.7549 17.3497 37.8871L16.6009 35.0663C28.5876 35.0824 38.3197 39.5359 44.8841 43.7901L50.1906 47.6644L50.2068 47.6778C51.1621 46.4175 52.047 45.1052 52.8573 43.747C40.7898 33.0348 24.8434 28.1206 24.8434 28.1206L25.6111 32.2212ZM18.403 14.8355L18.3868 18.505C13.1534 16.5347 7.72726 15.1205 2.19801 14.2859C1.9071 14.2535 1.63235 14.2266 1.37376 14.2023C1.30103 14.5041 1.23099 14.8112 1.16904 15.1238C0.609644 17.1737 0.218663 19.266 0 21.3797C0.581826 21.4013 1.15198 21.4273 1.71046 21.4578L7.13276 21.8997C9.59744 22.1691 11.782 22.5409 13.6352 22.9262C18.1632 23.8476 20.5067 24.8121 20.5067 24.8121L20.3828 21.8162C30.5459 24.8418 38.8558 30.1305 45.1643 35.3842L50.4438 40.1772C51.4593 41.1821 52.3913 42.1574 53.2425 43.0842C54.0362 41.7128 54.7372 40.2898 55.3408 38.8247C41.0268 22.5382 18.403 14.8355 18.403 14.8355ZM21.366 40.4304L22.139 43.4264C17.4125 43.4462 12.7176 44.1978 8.22099 45.6545C7.69573 45.8296 7.14353 46.0236 6.58864 46.2284C16.8514 60.381 36.5392 65.1686 49.9051 48.0793C49.0243 47.5135 48.0034 46.9073 46.7858 46.2472C34.7264 39.8862 21.3794 40.4277 21.3794 40.4277L21.366 40.4304ZM5.05327 6.78518C6.6506 7.22434 7.62031 7.50454 7.62031 7.50454C8.31796 7.7551 8.96713 8.00027 9.57858 8.23467C12.3261 9.26116 13.8372 9.99398 13.8372 9.99398V6.53193C27.6287 11.7452 38.08 19.615 45.466 26.7708L50.7212 32.2858C52.6876 34.522 54.3011 36.5696 55.5698 38.2912C67.2764 8.01374 19.9087 -10.8215 5.05327 6.78518Z" fill="#F9C515"/>
<path d="M101.599 22.1233C101.076 24.2787 99.7563 26.2373 97.6391 27.9994C95.5991 29.4363 93.5609 30.8561 91.5245 32.2589C91.643 32.8597 92.0633 33.3069 92.7528 33.606C93.4424 33.9051 94.1212 34.196 94.7623 34.4762C98.0773 36.6316 99.7356 39.1902 99.7374 42.152C99.7374 44.4313 98.9581 46.531 97.3994 48.4511C96.1998 49.9311 94.4211 51.3905 92.0633 52.8292L86.3069 56.1888C85.8344 56.4669 85.2956 56.6121 84.7473 56.6091C83.4274 56.6091 82.508 56.0703 81.989 54.9926C82.0699 51.632 82.1498 48.293 82.2288 44.9755C82.2629 41.6659 82.4868 38.361 82.8995 35.077C82.0591 34.5193 81.6389 33.8781 81.6389 33.1588C81.6449 32.9741 81.688 32.7926 81.7658 32.625C81.8435 32.4574 81.9543 32.3072 82.0914 32.1835C82.4722 31.8179 82.8841 31.4862 83.3224 31.192C83.7938 25.6071 83.8937 19.9971 83.6214 14.399C81.7412 14.0398 80.5022 13.2001 79.9042 11.8799C79.8883 11.623 79.9626 11.3685 80.1143 11.1606C80.265 10.9263 80.3573 10.6593 80.3836 10.3819C81.2606 9.71086 82.3341 9.34728 83.4382 9.34737C84.2391 9.34737 86.078 9.60781 88.9548 10.1287C90.571 10.4145 92.1302 10.9604 93.5717 11.7452C97.8815 13.985 100.421 16.1637 101.189 18.2814C101.699 19.8027 101.836 21.0833 101.599 22.1233ZM94.1616 42.6343C94.2392 42.2194 94.2789 41.7982 94.2801 41.3761C94.2942 40.2144 93.8908 39.0863 93.1434 38.1969C91.1034 37.1983 89.8033 36.6981 89.243 36.6963C88.9349 36.6949 88.6297 36.7563 88.346 36.8768C88.3837 37.2782 88.4053 37.7174 88.4053 38.1969C88.3686 39.4918 88.258 40.7835 88.074 42.0658C87.8906 43.3679 87.7818 44.6794 87.748 45.994C87.7332 47.1708 87.8948 48.3433 88.2275 49.4722C88.8824 48.7707 89.641 48.1737 90.4767 47.7021C91.4949 47.0824 92.2042 46.5328 92.6047 46.0532C93.3176 45.2126 93.8366 44.073 94.1616 42.6343ZM95.961 19.1246C95.7598 17.6464 94.5603 16.5068 92.3623 15.7057C91.8439 15.4838 91.3432 15.2226 90.8646 14.9244C90.5167 14.6559 90.1005 14.4907 89.6632 14.4475C89.4777 14.4521 89.2948 14.4924 89.1245 14.566C89.0841 15.245 89.0652 15.967 89.0652 16.7214C89.0652 17.7614 89.1451 19.5207 89.305 21.9994C89.4271 24.2787 89.4675 26.0586 89.4262 27.3393C89.7027 27.3393 90.122 27.1291 90.6841 26.7088C91.2444 26.2885 91.5622 26.0595 91.643 26.0191C92.9334 25.378 94.0304 24.4054 94.8215 23.201C95.741 21.8826 96.1208 20.5238 95.961 19.1246Z" fill="#F9C515"/>
<path d="M120.807 21.6976C119.039 22.4999 117.224 23.1963 115.374 23.7829C113.523 24.3672 111.71 25.0626 109.943 25.8656C109.651 26.884 109.449 29.1462 109.34 32.6523C109.924 32.8912 110.551 33.0068 111.182 32.9917C111.972 32.9533 112.756 32.8497 113.528 32.6819C114.301 32.5159 115.086 32.4132 115.875 32.3748C116.727 32.3443 117.568 32.5828 118.277 33.0564C118.751 33.835 118.986 34.3388 118.989 34.5732C118.993 34.7014 118.963 34.8284 118.902 34.9414C118.842 35.0545 118.753 35.1496 118.644 35.2172C118.389 35.472 118.157 35.7478 117.949 36.0416C117.841 36.2027 117.692 36.3318 117.517 36.4153C117.342 36.4987 117.148 36.5334 116.955 36.5158C116.254 36.7151 114.975 36.8418 113.108 36.893C111.544 36.9432 110.297 37.1857 109.367 37.6204C108.753 40.5122 108.453 42.7942 108.467 44.4664C108.437 45.3826 108.579 46.2964 108.885 47.1606C110.458 48.434 113.177 48.9603 117.041 48.7394C117.37 48.7063 117.673 48.5469 117.887 48.2948C118.075 48.0624 118.339 47.9047 118.633 47.8503C119.565 47.6096 120.187 48.4233 120.5 50.2912C120.608 50.8808 120.513 51.4897 120.23 52.0182C120.122 52.2568 119.952 52.4621 119.738 52.6128C119.524 52.7634 119.274 52.854 119.013 52.875C114.981 53.0546 111.48 52.7097 108.508 51.8404C107.491 51.5176 106.597 50.8915 105.946 50.0461C105.192 49.1583 104.73 48.0594 104.623 46.8992C104.302 43.8697 104.28 40.8158 104.559 37.782C103.621 37.0492 103.2 36.3308 103.295 35.6267C103.326 35.2675 103.582 34.945 104.063 34.6595C104.544 34.3739 104.814 34.0694 104.871 33.7461C104.948 33.4228 105.077 31.5674 105.256 28.1799C103.387 27.765 102.465 26.9567 102.49 25.7551C102.513 24.6271 103.09 23.7291 104.219 23.0609L107.411 21.501C108.893 20.6557 110.464 19.978 112.095 19.4803C113.69 18.963 115.302 18.4646 116.931 17.985C117.128 17.9409 117.329 17.9201 117.531 17.9231C118.429 17.9231 119.481 18.3245 120.688 19.1274C120.723 19.2836 120.807 19.5746 120.944 20.0003C121.053 20.3018 121.122 20.616 121.151 20.9352C121.157 21.0802 121.128 21.2245 121.068 21.3568C121.008 21.489 120.919 21.6057 120.807 21.6976Z" fill="#F9C515"/>
<path d="M142.16 46.0964C142.342 46.5513 142.444 47.0345 142.461 47.5243C142.458 47.8663 142.38 48.2035 142.232 48.5117C142.084 48.82 141.87 49.0919 141.605 49.3078C141.037 49.8162 140.652 50.0541 140.449 50.0218C138.806 49.7147 137.766 48.3676 137.33 45.9805C136.959 43.7824 136.404 41.6193 135.671 39.5144L132.25 39.8189C130.942 39.9877 129.92 40.3954 129.182 41.042C128.812 42.0946 128.326 43.9634 127.724 46.6487C127.153 49.1273 126.6 51.0133 126.065 52.3065C125.796 52.919 125.226 53.0887 124.355 52.8157C123.247 52.4403 122.659 51.9311 122.593 51.2881C122.492 49.9949 122.861 48.2616 123.7 46.0883C124.706 43.6078 125.259 41.8413 125.359 40.7888C125.392 40.4816 125.176 40.1422 124.705 39.7677C124.233 39.3932 124.002 39.1049 124.002 38.9028C124.013 38.7026 124.093 38.5124 124.228 38.364C124.379 38.1781 124.732 38.0245 125.284 37.906C125.836 37.7874 126.146 37.6096 126.216 37.3671C126.819 35.6698 127.775 32.5095 129.082 27.8862C130.19 23.8808 131.178 20.8067 132.045 18.6639C132.244 18.1871 132.665 17.95 133.3 17.95C133.761 17.9468 134.207 18.1094 134.558 18.408C135.499 19.2252 136.103 20.4484 136.371 22.0775C136.57 23.4695 136.75 24.8624 136.91 26.2562C138.614 34.285 140.364 40.8983 142.16 46.0964ZM134.814 36.3622C134.689 34.9396 134.471 33.5266 134.162 32.1323C133.826 30.7726 133.508 29.4129 133.206 28.0533C132.2 30.8732 131.328 33.694 130.59 36.5158C131.135 36.4134 132.546 36.3622 134.825 36.3622H134.814Z" fill="#F9C515"/>
<path d="M166.292 49.6958C166.401 49.8276 166.46 49.9935 166.459 50.1646C166.459 50.962 165.582 51.57 163.827 51.9885C161.89 50.5642 159.479 48.3738 156.595 45.4174C153.379 42.1179 150.985 39.8242 149.413 38.5364C149.306 39.4344 149.106 41.7981 148.813 45.6275C148.633 48.5121 148.305 50.8067 147.827 52.5112C147.588 52.5725 147.357 52.663 147.14 52.7806C146.848 52.9416 146.51 52.9977 146.181 52.9396C144.565 52.5804 143.761 51.5197 143.77 49.7577C143.788 49.0578 143.862 48.3604 143.991 47.6724C144.137 46.6648 144.226 46.037 144.261 45.7865C144.406 43.7712 144.496 41.3725 144.53 38.5902V32.9055C144.53 28.1798 144.799 24.1996 145.338 20.9648C145.697 18.8094 147.834 17.8215 151.749 18.0011C153.724 18.0712 155.442 19.0097 156.902 20.8166C158.252 22.4852 158.927 24.293 158.927 26.24C158.927 27.8727 158.288 29.5063 157.01 31.1408C155.936 32.5808 154.55 33.7582 152.956 34.584C152.298 34.9315 151.97 35.3114 151.97 35.729C151.97 36.1466 152.352 36.7205 153.12 37.3455L154.873 38.6926C154.908 38.7268 156.916 40.4645 160.899 43.9059C163.437 46.0559 165.234 47.9858 166.292 49.6958ZM154.731 26.2723C154.835 25.7229 154.871 25.1628 154.838 24.6046C154.724 23.8626 154.39 23.1719 153.88 22.6217C153.352 22.0308 152.502 21.7353 151.331 21.7353C150.456 21.7353 149.906 22.0047 149.688 22.5193C149.497 23.4953 149.407 24.4884 149.419 25.4829C149.419 25.9356 149.475 27.103 149.586 28.9854C149.66 30.1517 149.66 31.3216 149.586 32.4879C152.612 30.3271 154.327 28.2553 154.731 26.2723Z" fill="#F9C515"/>
<path d="M175.693 11.7991C175.693 12.6397 175.113 13.3743 173.953 14.0029C173.797 14.0861 173.626 14.1348 173.45 14.1455C173.274 14.1561 173.098 14.1287 172.934 14.0649C172.374 13.8979 172.072 13.8143 172.035 13.8143C171.895 13.8247 171.76 13.8635 171.636 13.9283C171.512 13.9932 171.403 14.0828 171.315 14.1915C169.161 16.4601 168.083 19.2306 168.083 22.5032C168.072 23.6586 168.254 24.8077 168.622 25.9032C168.78 26.3649 170.299 29.6177 173.179 35.6617C175.097 39.6904 176.056 43.1111 176.056 45.9239C176.054 48.2451 175.5 50.5326 174.44 52.5974C174.081 53.3159 173.183 54.2391 171.746 55.3671C170.586 56.2472 169.547 56.6881 168.627 56.6899C168.278 56.6912 167.932 56.6272 167.606 56.5013C166.409 55.9625 165.81 55.2701 165.81 54.4241C165.81 53.9194 166.11 53.3105 166.709 52.5974C166.868 52.3873 167.248 52.2607 167.849 52.2202C168.101 52.2249 168.348 52.1557 168.561 52.0211C168.774 51.8866 168.943 51.6926 169.047 51.4632C169.869 49.6898 170.298 47.7599 170.305 45.8053C170.305 43.0788 169.016 39.1273 166.437 33.9508C163.859 28.7744 162.566 24.6226 162.558 21.4955C162.518 19.129 163.011 16.7837 164 14.6334C165.077 12.3236 166.616 10.6657 168.616 9.65988C169.447 9.21913 170.37 8.98095 171.31 8.96478C172.989 8.96478 174.246 9.44794 175.081 10.4143C175.447 10.7859 175.664 11.2784 175.693 11.7991Z" fill="#F9C515"/>
<path d="M199.911 20.1646C199.57 21.3501 198.979 22.0281 198.139 22.1987C195.953 22.6532 192.166 23.218 186.777 23.8934C185.816 32.1556 185.237 39.051 185.039 44.5795C184.964 46.6756 184.924 48.7412 184.918 50.7762C184.947 51.2626 184.896 51.7504 184.767 52.2203C184.588 52.7483 184.246 52.9863 183.741 52.9342C183.276 52.9071 182.823 52.7755 182.416 52.5493C182.009 52.3231 181.658 52.008 181.389 51.6275C180.798 50.8641 180.464 49.9334 180.433 48.9684C180.408 47.7344 180.421 46.4349 180.471 45.0699C180.548 42.8714 180.818 39.3976 181.279 34.6487C181.742 30.1008 182 26.6271 182.052 24.2275C180.8 24.1384 179.542 24.1772 178.297 24.3433C177.034 24.5117 175.762 24.6016 174.488 24.6127C172.856 24.5553 171.54 24.0721 170.539 23.1633C170.171 22.2778 169.992 21.8171 170.001 21.7811C170.032 21.497 170.165 21.2338 170.375 21.0402C171.453 20.7079 173.645 20.4502 176.953 20.267C179.862 20.0676 182.046 19.6078 183.504 18.8876C184.779 19.3509 186.121 19.6012 187.477 19.6285C188.925 19.6863 190.374 19.5532 191.787 19.2324C192.821 19.0975 193.847 18.9005 194.858 18.6424C195.842 18.3948 196.863 18.3272 197.872 18.443C198.472 18.4646 198.712 18.7232 198.594 19.2189C199.493 19.2405 199.933 19.5557 199.911 20.1646Z" fill="#F9C515"/>
<path d="M217.428 20.1403C217.185 22.637 216.491 25.9733 215.346 30.1493C213.785 35.7515 212.887 39.1408 212.652 40.3172C211.911 43.8726 210.421 47.2293 208.283 50.1646C206.931 52.0559 205.37 52.9836 203.601 52.9477C202.043 52.9136 200.881 51.8969 200.116 49.8978C198.799 46.5445 198.14 42.601 198.139 38.0676C198.191 34.7032 198.434 31.3444 198.866 28.0074C198.832 28.3666 198.815 27.2602 198.815 24.6882C198.815 22.4753 199.647 21.3698 201.312 21.3716C201.699 21.3871 202.078 21.4913 202.419 21.676C202.817 21.8736 203.208 22.0784 203.591 22.2903C203.623 24.1116 203.571 26.7878 203.434 30.319C203.255 34.1017 203.165 36.8318 203.165 38.5094C203.165 40.293 203.217 41.9158 203.321 43.3779C203.391 44.1269 203.704 45.5539 204.259 47.659C205.715 45.9832 206.859 43.7533 207.69 40.9692C207.969 40.0424 208.524 37.5099 209.355 33.3716C210.016 30.2301 210.762 27.7676 211.593 25.9841C211.836 25.4829 212.043 24.54 212.218 23.1471C212.393 21.7542 212.598 20.7923 212.841 20.2589C212.992 19.8631 213.265 19.5256 213.62 19.2947C213.975 19.0638 214.395 18.9514 214.818 18.9737C216.039 18.9666 216.909 19.3554 217.428 20.1403Z" fill="#F9C515"/>
<path d="M233.705 37.6554C233.346 38.5319 232.999 39.4075 232.663 40.2822C232.31 41.1628 231.833 41.9883 231.246 42.734C230.122 44.2158 229 45.6769 227.879 47.1174C226.539 48.8651 225.33 50.0784 224.251 50.7573C223.892 51.2117 223.494 51.6859 223.057 52.1799C222.624 52.6702 222.193 52.9181 221.762 52.9127C221.503 52.901 221.249 52.8407 221.013 52.7349C220.727 52.619 220.418 52.4816 220.078 52.3253C219.75 52.1814 219.492 51.9144 219.359 51.5817C219.266 49.976 219.227 48.2562 219.243 46.4223C219.259 44.5508 219.355 41.7668 219.529 38.0703C219.703 34.3739 219.798 31.5854 219.814 29.7048C219.836 27.2207 219.766 24.9468 219.604 22.8831L218.435 21.5521C217.975 21.0546 217.747 20.5939 217.751 20.17C217.753 19.9745 217.79 19.781 217.861 19.5988C218.041 19.1444 218.437 18.8804 219.049 18.8067C219.515 18.7367 219.981 18.6801 220.447 18.6478C223.448 19.3662 226.582 21.1893 229.848 24.117C230.647 24.8262 231.345 25.6421 231.922 26.5418C233.616 29.2683 234.452 31.8162 234.433 34.1853C234.424 35.3789 234.176 36.5587 233.705 37.6554ZM229.891 31.4884C229.586 29.0779 227.691 26.9405 224.205 25.0762C223.898 31.456 223.768 38.2185 223.814 45.3635C227.896 41.0833 229.953 36.9935 229.985 33.0941C229.99 32.5573 229.959 32.0209 229.891 31.4884Z" fill="#F9C515"/>
<path d="M241.237 21.051C241.312 22.1718 241.351 23.3312 241.353 24.5292C241.353 27.1588 241.083 31.1219 240.544 36.4187C240.006 41.7156 239.736 45.7173 239.736 48.4241C239.736 49.4282 239.756 50.416 239.796 51.3878C239.445 52.4654 238.69 52.9872 237.53 52.9531C235.864 52.8741 234.953 52.1556 234.799 50.7977C234.639 49.3728 234.561 47.9398 234.565 46.5059C234.565 43.8763 234.884 39.9517 235.523 34.7322C236.163 29.5126 236.479 25.6096 236.472 23.0232C236.472 22.0209 236.434 21.0321 236.356 20.0595C236.744 19.3249 237.402 18.9576 238.33 18.9576C239.11 18.9703 239.872 19.1897 240.539 19.5934C240.637 19.5033 240.758 19.4434 240.889 19.421C241.005 19.421 241.062 19.615 241.062 20.0003C241.019 20.268 241.019 20.5408 241.062 20.8085C241.072 20.8589 241.094 20.9064 241.124 20.9481C241.154 20.9899 241.192 21.0249 241.237 21.051Z" fill="#F9C515"/>
<path d="M265.305 41.1552C262.595 47.65 258.762 51.5117 253.806 52.7403C253.22 52.8853 252.62 52.9595 252.017 52.9612C249.399 52.9612 246.759 51.4471 244.098 48.4188C242.302 46.3658 241.404 43.7039 241.404 40.4332C241.404 36.8175 242.414 32.9343 244.434 28.7834C245.246 27.1136 246.315 25.5816 247.602 24.2437C249.024 22.7295 250.378 21.9725 251.664 21.9725C252.44 21.9885 253.18 22.3031 253.73 22.8508C254.371 23.4381 256.092 24.2194 258.894 25.1947C261.095 25.976 262.656 27.2944 263.575 29.1498C265.181 32.4224 265.989 35.2306 266 37.5746C266.013 38.8029 265.776 40.021 265.305 41.1552ZM259.796 36.6128C259.473 33.0492 258.575 30.9244 257.103 30.2383C256.908 30.1492 256.697 30.0997 256.483 30.0928C255.93 30.0928 255.241 30.5813 254.417 31.5584C253.498 32.681 252.786 33.3402 252.284 33.536C251.963 33.6815 251.502 33.536 250.907 33.0968C250.312 32.6577 249.919 32.4368 249.735 32.4368C249.671 32.4352 249.606 32.4476 249.547 32.4732C249.487 32.4987 249.434 32.5369 249.391 32.5849C247.785 34.047 246.983 36.3173 246.983 39.3959C246.983 41.4974 247.441 43.28 248.359 44.7439C249.643 46.7484 250.72 47.7497 251.591 47.7479C253.612 47.7479 255.563 46.4008 257.445 43.7066C259.242 41.1759 260.026 38.8112 259.796 36.6128Z" fill="#F9C515"/>
</g>
<defs>
<clipPath id="clip0_1_3581">
<rect width="266" height="59" fill="white"/>
</clipPath>
</defs>
</svg>
