<?xml version="1.0" encoding="UTF-8"?> <svg xmlns="http://www.w3.org/2000/svg" width="27" height="26" viewBox="0 0 27 26" fill="none"><path d="M11.6546 7.60853C12.0324 5.47486 12.0724 2.89224 10.321 1.58981C9.58757 1.03861 8.40516 0.891924 7.82729 1.61204C7.06717 2.55441 7.9562 3.90573 8.81856 4.75475C11.421 7.30779 14.1746 9.70211 17.0643 11.9248C18.509 13.036 20.0381 14.1473 21.8161 14.5296C22.2235 14.6519 22.6514 14.6902 23.074 14.642C23.4965 14.5939 23.9049 14.4604 24.2743 14.2496C24.9766 13.7695 25.2745 12.6626 24.6877 12.027C24.1009 11.3913 23.2208 11.5825 22.4651 11.7292C17.4916 12.7951 12.6137 14.267 7.88063 16.1299C6.36655 16.6473 4.94641 17.4069 3.67553 18.3791C2.45756 19.4104 1.52853 20.8995 1.53297 22.4953C1.53297 23.5666 2.16863 24.7845 3.23991 24.8646C5.46248 25.0379 7.68505 19.4104 8.4096 17.8501C9.93413 14.5927 11.0251 11.1495 11.6546 7.60853V7.60853Z" stroke="#00404C" stroke-width="2.12912" stroke-miterlimit="10"></path></svg> 